# xmcd
#
# Track frame offsets:
#	150
#	11595
#	26692
#	38692
#	52960
#	65630
#	82937
#	97605
#	108580
#	125912
#	139912
#	155405
#
# Disc length: 2238 seconds
#
# Revision: 1
# Processed by: cddbd v1.5.2PL0 Copyright (c) Steve Scherf et al.
# Submitted via: audiograbber 1.83.01
#
DISCID=9608bc0c
DTITLE=Die Ranchers - Das Herz am rechten Fleck
DYEAR=1992
DGENRE=Country
TTITLE0=Drüben in Tampico
TTITLE1=Wenn es Nacht wird in Montana
TTITLE2=Juanita
TTITLE3=Schenk mir dei Herzerl, Mary Rose
TTITLE4=Gute Fahrt und gute Reise
TTITLE5=Der letzte Zug nach San Fernando
TTITLE6=Feiern kann man nicht nur in Bayern
TTITLE7=Jambalaya
TTITLE8=Angelina, morgen ist Hochzeit
TTITLE9=Mendocino
TTITLE10=Wie a starker Kaffee
TTITLE11=Adios Mexico
EXTD=
EXTT0=
EXTT1=
EXTT2=
EXTT3=
EXTT4=
EXTT5=
EXTT6=
EXTT7=
EXTT8=
EXTT9=
EXTT10=
EXTT11=
PLAYORDER=
